# This file uses centimeters as units for non-parametric coordinates.

mtllib Stone.mtl
g default
v -1.058421 0.797374 2.177758
v -0.014646 0.649868 3.251182
v -1.187026 2.013147 2.358107
v -0.032596 1.850003 3.545329
v -0.303119 2.301279 1.615400
v 0.862567 1.764816 2.418619
v -0.289363 1.067618 1.544269
v 1.068693 0.818603 2.220954
v -0.610372 0.610445 2.823562
v -0.471372 2.056022 3.344710
v 0.647687 2.005709 2.005081
v 0.589345 0.881038 1.901525
v -1.480416 1.390067 2.258922
v -0.289434 1.726028 1.224193
v 1.066929 1.565395 1.628354
v 1.475137 1.419564 2.318940
v -0.030125 1.185112 3.750408
v -0.719609 1.287133 3.327309
v -0.881240 2.208725 1.907706
v 0.074067 2.278343 2.923663
v 0.451327 2.020407 3.278125
v 0.631409 1.280523 3.346309
v 0.425883 0.574376 2.975136
v -0.144932 0.547067 2.370422
v -0.778955 0.744644 1.736075
v -1.042673 1.517105 1.624674
v -0.954675 0.620828 2.596792
v -1.272527 1.380336 2.946761
v -0.948455 2.213190 3.016517
v -0.439143 2.463232 2.495105
v 0.109787 2.213966 1.688195
v 0.382773 1.788615 1.470478
v 0.148553 0.943120 1.645515
v -0.508976 0.551357 2.061393
v -0.525284 0.835604 1.462577
v -0.675996 1.653112 1.216059
v -0.591583 2.376921 1.601275
v -0.103089 2.472445 1.978468
v 0.440045 2.181871 2.346681
v 0.778356 1.896873 2.785467
v 1.288629 1.342851 2.825159
v 0.938989 0.596053 2.557111
v 0.338993 0.616122 2.029116
v -0.120839 0.654042 1.706289
v -0.318041 2.038151 1.316793
v 0.279541 2.024535 1.492513
v 1.026285 1.871650 1.828079
v 1.369426 1.658678 2.436130
v 1.220338 1.689155 2.916936
v 0.604557 1.638129 3.401140
v -0.026257 1.491742 3.770833
v -0.647601 1.661383 3.427346
v -1.214832 1.799264 3.037036
v -1.460702 1.694458 2.295643
v -1.051234 1.872125 1.698317
v -0.689784 2.039653 1.304535
v -1.198617 1.095940 2.225665
v -0.861285 1.130889 1.719612
v -0.569511 1.237642 1.398786
v -0.276731 1.381062 1.441036
v 0.342186 1.367018 1.512456
v 0.871294 1.232828 1.707123
v 1.288746 1.134873 2.182173
v 1.218645 0.954254 2.850804
v 0.668195 0.914743 3.292536
v 0.149850 0.905375 3.612435
v -0.630044 0.959605 3.031917
v -1.052042 1.008326 2.746271
vt 0.805669 0.851697
vt 0.843446 0.792808
vt 0.905015 0.817493
vt 0.835762 0.899107
vt 0.438802 0.277191
vt 0.354128 0.253385
vt 0.372317 0.184871
vt 0.418639 0.237511
vt 0.577026 0.866008
vt 0.521276 0.758745
vt 0.604095 0.754102
vt 0.622308 0.832491
vt 0.666370 0.770404
vt 0.671475 0.843175
vt 0.560337 0.535379
vt 0.670088 0.487835
vt 0.672995 0.567853
vt 0.609913 0.574686
vt 0.634759 0.896229
vt 0.889167 0.548400
vt 0.915726 0.721572
vt 0.848537 0.731490
vt 0.847355 0.614702
vt 0.268500 0.142244
vt 0.253331 0.215067
vt 0.149912 0.216353
vt 0.177850 0.154164
vt 0.599303 0.667756
vt 0.517338 0.647876
vt 0.660467 0.685666
vt 0.523692 0.170987
vt 0.568215 0.247449
vt 0.503965 0.262159
vt 0.475658 0.205084
vt 0.386103 0.130114
vt 0.391691 0.081261
vt 0.092093 0.045005
vt 0.255418 0.001975
vt 0.244986 0.068944
vt 0.112268 0.093920
vt 0.076553 0.172093
vt 0.021625 0.138053
vt 0.091257 0.444566
vt 0.209428 0.498324
vt 0.198972 0.569460
vt 0.048619 0.478585
vt 0.496241 0.524457
vt 0.348831 0.580575
vt 0.328121 0.508345
vt 0.458744 0.483757
vt 0.414148 0.430575
vt 0.308540 0.439869
vt 0.324496 0.335220
vt 0.438081 0.343561
vt 0.140722 0.313288
vt 0.227241 0.318536
vt 0.224613 0.427220
vt 0.146860 0.403743
vt 0.001992 0.316280
vt 0.069764 0.312780
vt 0.769856 0.586264
vt 0.792315 0.503019
vt 0.748858 0.711531
vt 0.725817 0.846431
vt 0.744017 0.781282
vt 0.719252 0.908804
vt 0.508267 0.358821
vt 0.572429 0.373855
vt 0.711074 0.989334
vt 0.879076 0.963632
vt 0.588354 0.967750
vt 0.522408 0.917262
vt 0.445823 0.784391
vt 0.445905 0.626822
vt 0.529946 0.474167
vt 0.638709 0.425837
vt 0.818859 0.438757
vt 0.954304 0.539198
vt 0.998008 0.706722
vt 0.985861 0.852788
vn -0.921531 -0.360566 0.144131
vn -0.921531 -0.360566 0.144131
vn -0.921531 -0.360566 0.144131
vn -0.921531 -0.360566 0.144131
vn 0.253849 0.813432 -0.523344
vn 0.253849 0.813432 -0.523344
vn 0.253849 0.813432 -0.523344
vn 0.253849 0.813432 -0.523344
vn 0.109726 -0.331041 -0.937215
vn 0.109726 -0.331041 -0.937215
vn 0.109726 -0.331041 -0.937215
vn 0.109726 -0.331041 -0.937215
vn 0.290173 -0.244242 -0.925281
vn 0.290173 -0.244242 -0.925281
vn 0.813949 -0.576757 -0.069567
vn 0.813949 -0.576757 -0.069567
vn 0.813949 -0.576757 -0.069567
vn 0.813949 -0.576757 -0.069567
vn 0.354611 -0.197680 -0.913879
vn -0.507345 -0.523386 0.684593
vn -0.507345 -0.523386 0.684593
vn -0.507346 -0.523386 0.684593
vn -0.507345 -0.523386 0.684593
vn 0.703987 0.709962 -0.018862
vn 0.703987 0.709962 -0.018862
vn 0.703987 0.709962 -0.018862
vn 0.703987 0.709962 -0.018862
vn 0.475859 -0.586384 -0.655524
vn 0.475859 -0.586384 -0.655524
vn 0.352924 -0.774536 -0.524917
vn 0.002391 0.251019 -0.967979
vn 0.002391 0.251019 -0.967979
vn 0.002391 0.251019 -0.967979
vn 0.002391 0.251019 -0.967979
vn 0.295115 0.263121 -0.918518
vn 0.295115 0.263121 -0.918518
vn 0.827527 0.431084 -0.359674
vn 0.827527 0.431084 -0.359674
vn 0.827527 0.431084 -0.359674
vn 0.827527 0.431084 -0.359674
vn 0.932060 0.161217 0.324459
vn 0.932060 0.161217 0.324459
vn -0.516921 -0.092950 0.850972
vn -0.516921 -0.092950 0.850972
vn -0.516921 -0.092950 0.850972
vn -0.516921 -0.092950 0.850972
vn -0.952896 0.049439 0.299241
vn -0.952896 0.049439 0.299241
vn -0.952896 0.049439 0.299241
vn -0.952896 0.049439 0.299241
vn -0.510695 0.859073 -0.034417
vn -0.510695 0.859073 -0.034417
vn -0.510695 0.859073 -0.034417
vn -0.510695 0.859073 -0.034417
vn 0.072918 0.815376 0.574321
vn 0.072918 0.815376 0.574321
vn 0.072918 0.815376 0.574321
vn 0.072918 0.815376 0.574321
vn 0.522851 -0.078079 0.848841
vn 0.522851 -0.078079 0.848841
vn 0.277267 -0.798264 0.534693
vn 0.277267 -0.798264 0.534693
vn -0.052548 -0.990960 0.123436
vn -0.436657 -0.873605 -0.214816
vn -0.436657 -0.873604 -0.214816
vn -0.815522 -0.240838 -0.526233
vn -0.831280 0.105404 -0.545768
vn -0.831280 0.105404 -0.545768
s 1
g Stone
usemtl initialShadingGroup
f 1/1/1 27/2/2 68/3/3 57/4/4
f 37/5/5 38/6/6 31/7/7 5/8/8
f 60/9/9 61/10/10 33/11/11 7/12/12
f 7/12/12 33/11/11 44/13/13 35/14/14
f 63/15/15 64/16/16 42/17/17 8/18/18
f 7/12/12 35/14/14 59/19/19 60/9/9
f 66/20/20 67/21/21 9/22/22 2/23/23
f 11/24/24 39/25/25 40/26/26 6/27/27
f 12/28/28 62/29/29 63/15/15 8/18/18
f 42/17/17 43/30/30 12/28/28 8/18/18
f 14/31/31 36/32/32 56/33/33 45/34/34
f 45/34/34 46/35/35 32/36/36 14/31/31
f 16/37/37 15/38/38 47/39/39 48/40/40
f 48/40/40 49/41/41 41/42/42 16/37/37
f 51/43/43 52/44/44 18/45/45 17/46/46
f 13/47/47 28/48/48 53/49/49 54/50/50
f 3/51/51 29/52/52 30/53/53 19/54/54
f 21/55/55 20/56/56 10/57/57 4/58/58
f 17/46/46 22/59/59 50/60/60 51/43/43
f 2/23/23 23/61/61 65/62/62 66/20/20
f 9/22/22 24/63/63 23/61/61 2/23/23
f 25/64/64 34/65/65 27/2/2 1/1/1
f 57/4/4 58/66/66 25/64/64 1/1/1
f 54/50/50 55/67/67 26/68/68 13/47/47
f 67/21/21 68/3/3 27/2/2 9/22/22
f 52/44/44 53/49/49 28/48/48 18/45/45
f 30/53/53 29/52/52 10/57/57 20/56/56
f 31/7/7 38/6/6 39/25/25 11/24/24
f 32/36/36 46/35/35 47/39/39 15/38/38
f 33/11/11 61/10/10 62/29/29 12/28/28
f 43/30/30 44/13/13 33/11/11 12/28/28
f 27/2/2 34/65/65 24/63/63 9/22/22
f 58/66/66 59/19/19 35/14/14 25/64/64
f 55/67/67 56/33/33 36/32/32 26/68/68
f 19/54/54 30/53/53 38/6/6 37/5/5
f 39/25/25 38/6/6 30/53/53 20/56/56
f 40/26/26 39/25/25 20/56/56 21/55/55
f 49/41/41 50/60/60 22/59/59 41/42/42
f 64/16/16 65/62/62 23/61/61 42/17/17
f 23/61/61 24/63/63 43/30/30 42/17/17
f 34/65/65 44/13/13 43/30/30 24/63/63
f 35/14/14 44/13/13 34/65/65 25/64/64
f 5/8/8 31/7/7 46/35/35 45/34/34
f 47/39/39 46/35/35 31/7/7 11/24/24
f 48/40/40 47/39/39 11/24/24 6/27/27
f 40/26/26 49/41/41 48/40/40 6/27/27
f 21/55/55 50/60/60 49/41/41 40/26/26
f 51/43/43 50/60/60 21/55/55 4/58/58
f 10/57/57 52/44/44 51/43/43 4/58/58
f 29/52/52 53/49/49 52/44/44 10/57/57
f 54/50/50 53/49/49 29/52/52 3/51/51
f 19/54/54 55/67/67 54/50/50 3/51/51
f 37/5/5 56/33/33 55/67/67 19/54/54
f 45/34/34 56/33/33 37/5/5 5/8/8
f 26/69/68 58/66/66 57/4/4 13/70/47
f 36/71/32 59/19/19 58/66/66 26/69/68
f 60/9/9 59/19/19 36/71/32 14/72/31
f 14/72/31 32/73/36 61/10/10 60/9/9
f 62/29/29 61/10/10 32/73/36 15/74/38
f 63/15/15 62/29/29 15/74/38 16/75/37
f 41/76/42 64/16/16 63/15/15 16/75/37
f 22/77/59 65/62/62 64/16/16 41/76/42
f 66/20/20 65/62/62 22/77/59 17/78/46
f 17/78/46 18/79/45 67/21/21 66/20/20
f 28/80/48 68/3/3 67/21/21 18/79/45
f 57/4/4 68/3/3 28/80/48 13/70/47
