# This file uses centimeters as units for non-parametric coordinates.

mtllib BaseSteer.mtl
g default
v -1.381317 0.063004 0.500000
v -0.381317 0.063004 0.500000
v -1.242950 2.646099 0.361633
v -0.519683 2.646099 0.361633
v -1.242950 2.646099 -0.361633
v -0.519683 2.646099 -0.361633
v -1.381317 0.063004 -0.500000
v -0.381317 0.063004 -0.500000
v -1.371923 2.680772 0.490606
v -0.390710 2.680772 0.490606
v -0.390710 2.680772 -0.490606
v -1.371923 2.680772 -0.490606
v -1.371923 3.736855 0.490606
v -0.390710 3.736855 0.490606
v -0.390710 3.736855 -0.490606
v -1.371923 3.736855 -0.490606
v -0.471445 3.143646 -0.037833
v -0.471445 3.161036 -0.071962
v -0.471445 3.188122 -0.099048
v -0.471445 3.222250 -0.116438
v -0.471445 3.260083 -0.122430
v -0.471445 3.297917 -0.116438
v -0.471445 3.332046 -0.099048
v -0.471445 3.359131 -0.071962
v -0.471445 3.376521 -0.037833
v -0.471445 3.382513 0.000000
v -0.471445 3.376521 0.037833
v -0.471445 3.359131 0.071962
v -0.471445 3.332046 0.099048
v -0.471445 3.297917 0.116438
v -0.471445 3.260083 0.122430
v -0.471445 3.222250 0.116438
v -0.471445 3.188122 0.099048
v -0.471445 3.161036 0.071962
v -0.471445 3.143646 0.037833
v -0.471445 3.137654 0.000000
v 0.340051 3.143646 -0.037833
v 0.340051 3.161036 -0.071962
v 0.340051 3.188122 -0.099048
v 0.340051 3.222250 -0.116438
v 0.340051 3.260083 -0.122430
v 0.340051 3.297917 -0.116438
v 0.340051 3.332046 -0.099048
v 0.340051 3.359131 -0.071962
v 0.340051 3.376521 -0.037833
v 0.340051 3.382513 0.000000
v 0.340051 3.376521 0.037833
v 0.340051 3.359131 0.071962
v 0.340051 3.332046 0.099048
v 0.340051 3.297917 0.116438
v 0.340051 3.260083 0.122430
v 0.340051 3.222250 0.116438
v 0.340051 3.188122 0.099048
v 0.340051 3.161036 0.071962
v 0.340051 3.143646 0.037833
v 0.340051 3.137654 0.000000
v -0.471445 3.260083 0.000000
v 0.340051 3.260083 0.000000
vt 0.330171 0.165626
vt 0.499644 0.136894
vt 0.552868 0.593676
vt 0.417979 0.618422
vt 0.283171 0.645416
vt 0.671953 0.123918
vt 0.164595 0.204819
vt 0.126746 0.041886
vt 0.291622 0.003179
vt 0.680444 0.572210
vt 0.559034 0.617547
vt 0.156612 0.670565
vt 0.001837 0.256115
vt 0.422800 0.642107
vt 0.707773 0.588326
vt 0.597017 0.778756
vt 0.456996 0.804799
vt 0.498262 0.961177
vt 0.339525 0.998008
vt 0.306256 0.837863
vt 0.285351 0.669384
vt 0.136368 0.694455
vt 0.151945 0.860029
vt 0.747337 0.749212
vt 0.753282 0.004623
vt 0.758963 0.004677
vt 0.758974 0.132447
vt 0.753268 0.132492
vt 0.764689 0.004737
vt 0.764685 0.132394
vt 0.770378 0.004767
vt 0.770388 0.132364
vt 0.776096 0.004761
vt 0.776112 0.132371
vt 0.781815 0.004743
vt 0.781835 0.132393
vt 0.787562 0.004722
vt 0.787568 0.132413
vt 0.793293 0.004710
vt 0.793307 0.132420
vt 0.799024 0.004722
vt 0.799056 0.132405
vt 0.804781 0.004765
vt 0.804793 0.132363
vt 0.810512 0.004786
vt 0.810542 0.132339
vt 0.816242 0.004790
vt 0.816267 0.132329
vt 0.821997 0.004775
vt 0.822012 0.132337
vt 0.827730 0.004749
vt 0.827748 0.132364
vt 0.833461 0.004727
vt 0.833475 0.132388
vt 0.839184 0.004691
vt 0.839189 0.132424
vt 0.844867 0.004677
vt 0.844850 0.132438
vt 0.850542 0.004677
vt 0.850536 0.132443
vt 0.856231 0.004691
vt 0.856218 0.132437
vt 0.861933 0.004701
vt 0.861920 0.132431
vt 0.867602 0.004707
vt 0.867590 0.132425
vt 0.915769 0.011591
vt 0.919077 0.018083
vt 0.896929 0.024348
vt 0.910617 0.006440
vt 0.904125 0.003132
vt 0.896929 0.001992
vt 0.889733 0.003132
vt 0.883241 0.006440
vt 0.878089 0.011592
vt 0.874781 0.018083
vt 0.873641 0.025280
vt 0.874781 0.032476
vt 0.878089 0.038968
vt 0.883241 0.044120
vt 0.889733 0.047427
vt 0.896929 0.048567
vt 0.904125 0.047427
vt 0.910617 0.044120
vt 0.915769 0.038968
vt 0.919077 0.032476
vt 0.920217 0.025280
vt 0.904125 0.054042
vt 0.910617 0.057349
vt 0.895998 0.076189
vt 0.915769 0.062501
vt 0.919077 0.068993
vt 0.920217 0.076189
vt 0.919077 0.083386
vt 0.915769 0.089877
vt 0.910617 0.095029
vt 0.904125 0.098337
vt 0.896929 0.099477
vt 0.889733 0.098337
vt 0.883241 0.095029
vt 0.878089 0.089877
vt 0.874781 0.083386
vt 0.873641 0.076189
vt 0.874781 0.068993
vt 0.878089 0.062501
vt 0.883241 0.057349
vt 0.889733 0.054042
vt 0.896929 0.052902
vn 0.000000 0.053490 0.998568
vn 0.000000 0.053490 0.998568
vn 0.000000 0.053490 0.998568
vn 0.000000 0.053490 0.998568
vn 0.000000 1.000000 0.000000
vn 0.000000 1.000000 0.000000
vn 0.000000 1.000000 0.000000
vn 0.000000 1.000000 0.000000
vn 0.000000 0.053490 -0.998568
vn 0.000000 0.053490 -0.998568
vn 0.000000 0.053490 -0.998568
vn 0.000000 0.053490 -0.998568
vn 0.000000 -1.000000 0.000000
vn 0.000000 -1.000000 0.000000
vn 0.000000 -1.000000 0.000000
vn 0.000000 -1.000000 0.000000
vn 0.998568 0.053490 0.000000
vn 0.998568 0.053490 0.000000
vn 0.998568 0.053490 0.000000
vn 0.998568 0.053490 0.000000
vn -0.998568 0.053490 0.000000
vn -0.998568 0.053490 0.000000
vn -0.998568 0.053490 0.000000
vn -0.998568 0.053490 0.000000
vn 0.000000 -0.965710 0.259623
vn 0.000000 -0.965710 0.259623
vn 0.000000 -0.965710 0.259623
vn 0.000000 -0.965710 0.259623
vn 0.259624 -0.965710 0.000000
vn 0.259624 -0.965710 0.000000
vn 0.259624 -0.965710 0.000000
vn 0.259624 -0.965710 0.000000
vn 0.000000 -0.965710 -0.259622
vn 0.000000 -0.965710 -0.259622
vn 0.000000 -0.965710 -0.259622
vn 0.000000 -0.965710 -0.259622
vn -0.259624 -0.965710 0.000000
vn -0.259624 -0.965710 0.000000
vn -0.259624 -0.965710 0.000000
vn -0.259624 -0.965710 0.000000
vn 0.000000 0.000000 1.000000
vn 0.000000 0.000000 1.000000
vn 0.000000 0.000000 1.000000
vn 0.000000 0.000000 1.000000
vn 1.000000 0.000000 0.000000
vn 1.000000 0.000000 0.000000
vn 1.000000 0.000000 0.000000
vn 1.000000 0.000000 0.000000
vn 0.000000 0.000000 -1.000000
vn 0.000000 0.000000 -1.000000
vn 0.000000 0.000000 -1.000000
vn 0.000000 0.000000 -1.000000
vn -1.000000 0.000000 0.000000
vn -1.000000 0.000000 0.000000
vn -1.000000 0.000000 0.000000
vn -1.000000 0.000000 0.000000
vn 0.000000 -0.951057 -0.309016
vn 0.000000 -0.809012 -0.587792
vn 0.000000 -0.809012 -0.587792
vn 0.000000 -0.951057 -0.309016
vn 0.000000 -0.587788 -0.809015
vn 0.000000 -0.587788 -0.809015
vn 0.000000 -0.309020 -0.951056
vn 0.000000 -0.309020 -0.951056
vn 0.000000 0.000000 -1.000000
vn 0.000000 0.000000 -1.000000
vn 0.000000 0.309017 -0.951057
vn 0.000000 0.309017 -0.951057
vn 0.000000 0.587790 -0.809013
vn 0.000000 0.587790 -0.809013
vn 0.000000 0.809018 -0.587784
vn 0.000000 0.809018 -0.587784
vn 0.000000 0.951056 -0.309019
vn 0.000000 0.951056 -0.309019
vn 0.000000 1.000000 0.000000
vn 0.000000 1.000000 0.000000
vn 0.000000 0.951056 0.309019
vn 0.000000 0.951056 0.309019
vn 0.000000 0.809018 0.587784
vn 0.000000 0.809018 0.587784
vn 0.000000 0.587790 0.809014
vn 0.000000 0.587790 0.809014
vn 0.000000 0.309016 0.951057
vn 0.000000 0.309016 0.951057
vn 0.000000 -0.000000 1.000000
vn 0.000000 -0.000000 1.000000
vn 0.000000 -0.309020 0.951056
vn 0.000000 -0.309020 0.951056
vn 0.000000 -0.587788 0.809015
vn 0.000000 -0.587788 0.809015
vn 0.000000 -0.809012 0.587792
vn 0.000000 -0.809012 0.587792
vn 0.000000 -0.951057 0.309016
vn 0.000000 -0.951057 0.309016
vn 0.000000 -1.000000 0.000000
vn 0.000000 -1.000000 0.000000
vn -1.000000 0.000000 0.000000
vn -1.000000 0.000000 0.000000
vn -1.000000 0.000000 0.000000
vn -1.000000 0.000000 0.000000
vn -1.000000 -0.000001 0.000000
vn -1.000000 0.000000 0.000000
vn -1.000000 0.000001 0.000000
vn -1.000000 0.000001 0.000000
vn -1.000000 0.000000 0.000000
vn -1.000000 -0.000000 0.000000
vn -1.000000 0.000000 0.000000
vn -1.000000 0.000000 0.000000
vn -1.000000 0.000000 0.000000
vn -1.000000 0.000001 0.000000
vn -1.000000 0.000001 0.000000
vn -1.000000 0.000000 0.000000
vn -1.000000 -0.000001 0.000000
vn -1.000000 -0.000002 0.000000
vn -1.000000 -0.000000 0.000000
vn -1.000000 0.000000 0.000000
vn -1.000000 0.000000 0.000000
vn 1.000000 0.000000 0.000000
vn 1.000000 0.000000 0.000000
vn 1.000000 -0.000000 0.000000
vn 1.000000 -0.000000 0.000000
vn 1.000000 -0.000001 0.000000
vn 1.000000 0.000001 0.000000
vn 1.000000 0.000001 0.000000
vn 1.000000 -0.000001 0.000000
vn 1.000000 -0.000001 0.000000
vn 1.000000 0.000000 0.000000
vn 1.000000 0.000000 0.000000
vn 1.000000 0.000000 0.000000
vn 1.000000 0.000000 0.000000
vn 1.000000 0.000001 0.000000
vn 1.000000 0.000000 0.000000
vn 1.000000 -0.000001 0.000000
vn 1.000000 0.000000 0.000000
vn 1.000000 0.000000 0.000000
vn 1.000000 0.000000 0.000000
vn 1.000000 0.000000 0.000000
vn 1.000000 0.000000 0.000000
s off
g pCube2
usemtl initialShadingGroup
f 1/1/1 2/2/2 4/3/3 3/4/4
f 13/17/5 14/18/6 15/19/7 16/20/8
f 5/5/9 6/12/10 8/13/11 7/7/12
f 7/7/13 8/8/14 2/9/15 1/1/16
f 2/2/17 8/6/18 6/10/19 4/3/20
f 7/7/21 1/1/22 3/4/23 5/5/24
f 3/4/25 4/3/26 10/11/27 9/14/28
f 4/3/29 6/10/30 11/15/31 10/11/32
f 6/12/33 5/5/34 12/21/35 11/22/36
f 5/5/37 3/4/38 9/14/39 12/21/40
f 9/14/41 10/11/42 14/16/43 13/17/44
f 10/11/45 11/15/46 15/24/47 14/16/48
f 11/22/49 12/21/50 16/20/51 15/23/52
f 12/21/53 9/14/54 13/17/55 16/20/56
s 1
f 17/25/57 18/26/58 38/27/59 37/28/60
f 18/26/58 19/29/61 39/30/62 38/27/59
f 19/29/61 20/31/63 40/32/64 39/30/62
f 20/31/63 21/33/65 41/34/66 40/32/64
f 21/33/65 22/35/67 42/36/68 41/34/66
f 22/35/67 23/37/69 43/38/70 42/36/68
f 23/37/69 24/39/71 44/40/72 43/38/70
f 24/39/71 25/41/73 45/42/74 44/40/72
f 25/41/73 26/43/75 46/44/76 45/42/74
f 26/43/75 27/45/77 47/46/78 46/44/76
f 27/45/77 28/47/79 48/48/80 47/46/78
f 28/47/79 29/49/81 49/50/82 48/48/80
f 29/49/81 30/51/83 50/52/84 49/50/82
f 30/51/83 31/53/85 51/54/86 50/52/84
f 31/53/85 32/55/87 52/56/88 51/54/86
f 32/55/87 33/57/89 53/58/90 52/56/88
f 33/57/89 34/59/91 54/60/92 53/58/90
f 34/59/91 35/61/93 55/62/94 54/60/92
f 35/61/93 36/63/95 56/64/96 55/62/94
f 36/63/95 17/65/57 37/66/60 56/64/96
s 2
f 18/67/97 17/68/98 57/69/99
f 19/70/100 18/67/97 57/69/99
f 20/71/101 19/70/100 57/69/99
f 21/72/102 20/71/101 57/69/99
f 22/73/103 21/72/102 57/69/99
f 23/74/104 22/73/103 57/69/99
f 24/75/105 23/74/104 57/69/99
f 25/76/106 24/75/105 57/69/99
f 26/77/107 25/76/106 57/69/99
f 27/78/108 26/77/107 57/69/99
f 28/79/109 27/78/108 57/69/99
f 29/80/110 28/79/109 57/69/99
f 30/81/111 29/80/110 57/69/99
f 31/82/112 30/81/111 57/69/99
f 32/83/113 31/82/112 57/69/99
f 33/84/114 32/83/113 57/69/99
f 34/85/115 33/84/114 57/69/99
f 35/86/116 34/85/115 57/69/99
f 36/87/117 35/86/116 57/69/99
f 17/68/98 36/87/117 57/69/99
s 3
f 37/88/118 38/89/119 58/90/120
f 38/89/119 39/91/121 58/90/120
f 39/91/121 40/92/122 58/90/120
f 40/92/122 41/93/123 58/90/120
f 41/93/123 42/94/124 58/90/120
f 42/94/124 43/95/125 58/90/120
f 43/95/125 44/96/126 58/90/120
f 44/96/126 45/97/127 58/90/120
f 45/97/127 46/98/128 58/90/120
f 46/98/128 47/99/129 58/90/120
f 47/99/129 48/100/130 58/90/120
f 48/100/130 49/101/131 58/90/120
f 49/101/131 50/102/132 58/90/120
f 50/102/132 51/103/133 58/90/120
f 51/103/133 52/104/134 58/90/120
f 52/104/134 53/105/135 58/90/120
f 53/105/135 54/106/136 58/90/120
f 54/106/136 55/107/137 58/90/120
f 55/107/137 56/108/138 58/90/120
f 56/108/138 37/88/118 58/90/120
