# This file uses centimeters as units for non-parametric coordinates.

mtllib Balcony.mtl
g default
v 0.285083 7.239830 -0.092629
v 0.242506 7.239830 -0.176191
v 0.176191 7.239830 -0.242506
v 0.092629 7.239830 -0.285083
v -0.000000 7.239830 -0.299754
v -0.092629 7.239830 -0.285083
v -0.176191 7.239830 -0.242506
v -0.242506 7.239830 -0.176191
v -0.285083 7.239830 -0.092629
v -0.299754 7.239830 -0.000000
v -0.285083 7.239830 0.092629
v -0.242506 7.239830 0.176191
v -0.176191 7.239830 0.242506
v -0.092629 7.239830 0.285083
v -0.000000 7.239830 0.299754
v 0.092629 7.239830 0.285083
v 0.176191 7.239830 0.242506
v 0.242506 7.239830 0.176191
v 0.285083 7.239830 0.092629
v 0.299754 7.239830 -0.000000
v 0.479144 7.505956 -0.155683
v 0.407584 7.505956 -0.296127
v 0.296127 7.505956 -0.407584
v 0.155683 7.505956 -0.479144
v 0.000000 7.505956 -0.503802
v -0.155683 7.505956 -0.479144
v -0.296127 7.505956 -0.407584
v -0.407584 7.505956 -0.296127
v -0.479144 7.505956 -0.155683
v -0.503802 7.505956 0.000000
v -0.479144 7.505956 0.155683
v -0.407584 7.505956 0.296127
v -0.296127 7.505956 0.407584
v -0.155683 7.505956 0.479144
v -0.000000 7.505956 0.503801
v 0.155683 7.505956 0.479144
v 0.296127 7.505956 0.407584
v 0.407584 7.505956 0.296127
v 0.479144 7.505956 0.155683
v 0.503801 7.505956 0.000000
v -0.000000 7.239830 -0.000000
v 0.000000 7.505956 0.000000
vt 0.989461 0.284788
vt 0.968853 0.244343
vt 0.936755 0.212245
vt 0.896309 0.191637
vt 0.851475 0.184536
vt 0.806640 0.191637
vt 0.766194 0.212245
vt 0.734097 0.244343
vt 0.713488 0.284788
vt 0.706387 0.329623
vt 0.713488 0.374457
vt 0.734097 0.414903
vt 0.766194 0.447001
vt 0.806640 0.467609
vt 0.851475 0.474710
vt 0.896309 0.467609
vt 0.936755 0.447001
vt 0.968853 0.414903
vt 0.989461 0.374457
vt 0.996562 0.329623
vt 0.392040 0.456877
vt 0.387501 0.406323
vt 0.559284 0.375728
vt 0.566718 0.457455
vt 0.374147 0.357422
vt 0.537729 0.296687
vt 0.352351 0.311544
vt 0.502343 0.222703
vt 0.322711 0.270491
vt 0.454195 0.155993
vt 0.286034 0.235277
vt 0.049377 0.730097
vt 0.098558 0.738501
vt 0.084252 0.911998
vt 0.002441 0.897363
vt 0.148659 0.737298
vt 0.167341 0.910620
vt 0.197592 0.726587
vt 0.248717 0.893371
vt 0.244030 0.706828
vt 0.325155 0.861076
vt 0.394694 0.098839
vt 0.243790 0.207374
vt 0.325579 0.053022
vt 0.197275 0.187695
vt 0.248950 0.020650
vt 0.148168 0.177108
vt 0.167460 0.003374
vt 0.098183 0.176056
vt 0.084124 0.001862
vt 0.049003 0.184839
vt 0.001992 0.015997
vt 0.286177 0.678798
vt 0.394169 0.815484
vt 0.322774 0.643592
vt 0.453766 0.758509
vt 0.352503 0.602351
vt 0.501958 0.691966
vt 0.374271 0.556472
vt 0.537453 0.618059
vt 0.387566 0.507426
vt 0.559197 0.539111
vt 0.986562 0.626945
vt 0.953345 0.561752
vt 0.901608 0.510015
vt 0.836415 0.476797
vt 0.764148 0.465352
vt 0.691882 0.476797
vt 0.626689 0.510015
vt 0.574952 0.561752
vt 0.541735 0.626945
vt 0.530289 0.699211
vt 0.541735 0.771478
vt 0.574952 0.836671
vt 0.626689 0.888408
vt 0.691882 0.921625
vt 0.764148 0.933071
vt 0.836415 0.921625
vt 0.901608 0.888408
vt 0.953345 0.836671
vt 0.986562 0.771478
vt 0.998008 0.699211
vt 0.851475 0.323819
vt 0.764148 0.689857
vn 0.754740 -0.608465 -0.245229
vn 0.642020 -0.608465 -0.466455
vn 0.642020 -0.608465 -0.466455
vn 0.754740 -0.608465 -0.245229
vn 0.466455 -0.608465 -0.642020
vn 0.466455 -0.608465 -0.642020
vn 0.245230 -0.608465 -0.754740
vn 0.245230 -0.608465 -0.754740
vn -0.000000 -0.608465 -0.793581
vn -0.000000 -0.608465 -0.793581
vn -0.245230 -0.608465 -0.754740
vn -0.245230 -0.608465 -0.754740
vn -0.466455 -0.608465 -0.642020
vn -0.466455 -0.608465 -0.642020
vn -0.642020 -0.608465 -0.466455
vn -0.642021 -0.608465 -0.466455
vn -0.754740 -0.608465 -0.245230
vn -0.754740 -0.608465 -0.245230
vn -0.793581 -0.608465 -0.000000
vn -0.793581 -0.608465 -0.000000
vn -0.754740 -0.608465 0.245230
vn -0.754740 -0.608465 0.245230
vn -0.642020 -0.608465 0.466455
vn -0.642020 -0.608465 0.466455
vn -0.466455 -0.608465 0.642020
vn -0.466455 -0.608465 0.642020
vn -0.245230 -0.608465 0.754740
vn -0.245230 -0.608465 0.754740
vn -0.000000 -0.608465 0.793581
vn 0.000000 -0.608465 0.793581
vn 0.245230 -0.608465 0.754740
vn 0.245230 -0.608465 0.754740
vn 0.466455 -0.608465 0.642020
vn 0.466455 -0.608465 0.642020
vn 0.642020 -0.608465 0.466455
vn 0.642020 -0.608465 0.466455
vn 0.754740 -0.608465 0.245230
vn 0.754740 -0.608465 0.245230
vn 0.793581 -0.608465 0.000001
vn 0.793581 -0.608465 0.000001
vn 0.000000 -1.000000 -0.000000
vn 0.000000 -1.000000 -0.000000
vn 0.000000 -1.000000 0.000000
vn 0.000000 -1.000000 -0.000000
vn 0.000000 -1.000000 0.000000
vn 0.000000 -1.000000 0.000000
vn 0.000000 -1.000000 0.000000
vn 0.000000 -1.000000 0.000000
vn 0.000000 -1.000000 0.000000
vn 0.000000 -1.000000 0.000000
vn 0.000000 -1.000000 0.000000
vn 0.000000 -1.000000 -0.000000
vn 0.000000 -1.000000 0.000000
vn 0.000000 -1.000000 -0.000000
vn 0.000000 -1.000000 -0.000000
vn 0.000000 -1.000000 -0.000000
vn 0.000000 -1.000000 -0.000000
vn 0.000000 -1.000000 0.000000
vn 0.000000 -1.000000 0.000000
vn 0.000000 -1.000000 0.000000
vn 0.000000 -1.000000 0.000000
vn 0.000000 1.000000 0.000000
vn 0.000000 1.000000 0.000000
vn 0.000000 1.000000 0.000000
vn 0.000000 1.000000 0.000000
vn 0.000000 1.000000 0.000000
vn 0.000000 1.000000 0.000000
vn 0.000000 1.000000 0.000000
vn 0.000000 1.000000 0.000000
vn 0.000000 1.000000 0.000000
vn 0.000000 1.000000 -0.000000
vn 0.000000 1.000000 0.000000
vn 0.000000 1.000000 0.000000
vn 0.000000 1.000000 0.000000
vn 0.000000 1.000000 -0.000000
vn 0.000000 1.000000 -0.000000
vn 0.000000 1.000000 0.000000
vn 0.000000 1.000000 0.000000
vn 0.000000 1.000000 0.000000
vn 0.000000 1.000000 -0.000000
vn 0.000000 1.000000 0.000000
vn 0.000000 1.000000 0.000000
s 1
g pCylinder5
usemtl initialShadingGroup
f 1/21/1 2/22/2 22/23/3 21/24/4
f 2/22/2 3/25/5 23/26/6 22/23/3
f 3/25/5 4/27/7 24/28/8 23/26/6
f 4/27/7 5/29/9 25/30/10 24/28/8
f 5/29/9 6/31/11 26/42/12 25/30/10
f 6/31/11 7/43/13 27/44/14 26/42/12
f 7/43/13 8/45/15 28/46/16 27/44/14
f 8/45/15 9/47/17 29/48/18 28/46/16
f 9/47/17 10/49/19 30/50/20 29/48/18
f 10/49/19 11/51/21 31/52/22 30/50/20
f 11/32/21 12/33/23 32/34/24 31/35/22
f 12/33/23 13/36/25 33/37/26 32/34/24
f 13/36/25 14/38/27 34/39/28 33/37/26
f 14/38/27 15/40/29 35/41/30 34/39/28
f 15/40/29 16/53/31 36/54/32 35/41/30
f 16/53/31 17/55/33 37/56/34 36/54/32
f 17/55/33 18/57/35 38/58/36 37/56/34
f 18/57/35 19/59/37 39/60/38 38/58/36
f 19/59/37 20/61/39 40/62/40 39/60/38
f 20/61/39 1/21/1 21/24/4 40/62/40
s 2
f 2/2/41 1/1/42 41/83/43
f 3/3/44 2/2/41 41/83/43
f 4/4/45 3/3/44 41/83/43
f 5/5/46 4/4/45 41/83/43
f 6/6/47 5/5/46 41/83/43
f 7/7/48 6/6/47 41/83/43
f 8/8/49 7/7/48 41/83/43
f 9/9/50 8/8/49 41/83/43
f 10/10/51 9/9/50 41/83/43
f 11/11/52 10/10/51 41/83/43
f 12/12/53 11/11/52 41/83/43
f 13/13/54 12/12/53 41/83/43
f 14/14/55 13/13/54 41/83/43
f 15/15/56 14/14/55 41/83/43
f 16/16/57 15/15/56 41/83/43
f 17/17/58 16/16/57 41/83/43
f 18/18/59 17/17/58 41/83/43
f 19/19/60 18/18/59 41/83/43
f 20/20/61 19/19/60 41/83/43
f 1/1/42 20/20/61 41/83/43
s 3
f 21/81/62 22/80/63 42/84/64
f 22/80/63 23/79/65 42/84/64
f 23/79/65 24/78/66 42/84/64
f 24/78/66 25/77/67 42/84/64
f 25/77/67 26/76/68 42/84/64
f 26/76/68 27/75/69 42/84/64
f 27/75/69 28/74/70 42/84/64
f 28/74/70 29/73/71 42/84/64
f 29/73/71 30/72/72 42/84/64
f 30/72/72 31/71/73 42/84/64
f 31/71/73 32/70/74 42/84/64
f 32/70/74 33/69/75 42/84/64
f 33/69/75 34/68/76 42/84/64
f 34/68/76 35/67/77 42/84/64
f 35/67/77 36/66/78 42/84/64
f 36/66/78 37/65/79 42/84/64
f 37/65/79 38/64/80 42/84/64
f 38/64/80 39/63/81 42/84/64
f 39/63/81 40/82/82 42/84/64
f 40/82/82 21/81/62 42/84/64
